HIERARCHY
ROOT hip
{
	OFFSET 0.000000 0.000000 0.000000 
	CHANNELS 6 Xposition Yposition Zposition Xrotation Zrotation Yrotation
	JOINT abdomen
	{
		OFFSET 0.000000 3.402643 0.000000 
		CHANNELS 3 Xrotation Zrotation Yrotation
		JOINT chest
		{
			OFFSET 0.000000 8.438565 -0.680529 
			CHANNELS 3 Xrotation Zrotation Yrotation
			JOINT neck
			{
				OFFSET 0.000000 10.207942 -0.272212 
				CHANNELS 3 Xrotation Zrotation Yrotation
				JOINT head
				{
					OFFSET 0.000000 3.130431 0.000000 
					CHANNELS 3 Xrotation Zrotation Yrotation
					End Site
					{
						OFFSET 0.000000 3.130435 0.000000 
					}
				}
			}
			JOINT lCollar
			{
				OFFSET 3.470700 6.669187 -0.816635 
				CHANNELS 3 Yrotation Zrotation Xrotation
				JOINT lShldr
				{
					OFFSET 3.198488 0.000000 0.000000 
					CHANNELS 3 Zrotation Yrotation Xrotation
					JOINT lForeArm
					{
						OFFSET 10.139888 0.000000 0.000000 
						CHANNELS 3 Yrotation Zrotation Xrotation
						JOINT lHand
						{
							OFFSET 8.370511 0.000000 0.000000 
							CHANNELS 3 Zrotation Yrotation Xrotation
							End Site
							{
								OFFSET 4.083176 0.000000 0.000000 
							}
						}
					}
				}
			}
			JOINT rCollar
			{
				OFFSET -3.470700 6.669187 -0.816635 
				CHANNELS 3 Yrotation Zrotation Xrotation
				JOINT rShldr
				{
					OFFSET -3.198488 0.000000 0.000000 
					CHANNELS 3 Zrotation Yrotation Xrotation
					JOINT rForeArm
					{
						OFFSET -10.139888 0.000000 0.000000 
						CHANNELS 3 Yrotation Zrotation Xrotation
						JOINT rHand
						{
							OFFSET -8.370511 0.000000 0.000000 
							CHANNELS 3 Zrotation Yrotation Xrotation
							End Site
							{
								OFFSET -4.083176 0.000000 0.000000 
							}
						}
					}
				}
			}
		}
	}
	JOINT lThigh
	{
		OFFSET 5.308129 -1.633274 1.361059 
		CHANNELS 3 Xrotation Zrotation Yrotation
		JOINT lShin
		{
			OFFSET -2.041588 -20.007561 0.000000 
			CHANNELS 3 Xrotation Zrotation Yrotation
			JOINT lFoot
			{
				OFFSET 0.000000 -19.190928 -1.224953 
				CHANNELS 3 Xrotation Yrotation Zrotation
				End Site
				{
					OFFSET 0.000000 -2.449906 4.627600 
				}
			}
		}
	}
	JOINT rThigh
	{
		OFFSET -5.308129 -1.633274 1.361059 
		CHANNELS 3 Xrotation Zrotation Yrotation
		JOINT rShin
		{
			OFFSET 2.041588 -20.007561 0.000000 
			CHANNELS 3 Xrotation Zrotation Yrotation
			JOINT rFoot
			{
				OFFSET 0.000000 -19.190928 -1.224953 
				CHANNELS 3 Xrotation Yrotation Zrotation
				End Site
				{
					OFFSET 0.000000 -2.449906 4.627600 
				}
			}
		}
	}
}
MOTION
Frames: 6
Frame Time: 0.033333
0.084212 48.638927 0.084212 -0.008738 -0.014127 -26.523438 24.317009 6.744321 -18.120749 -0.031670 1.279348 0.204967 -8.546022 0.915930 -0.147486 19.807169 16.865419 47.852581 2.000000 -2.000000 0.000000 -7.261503 -49.661415 -30.778440 -46.275909 -0.599773 8.546930 -37.527386 -54.128384 -161.604568 -2.000000 2.000000 0.000000 -31.517221 136.180649 -90.470322 54.419010 0.554422 8.622923 13.128201 -54.099434 -39.611500 -27.527380 22.028713 15.201980 23.249083 -1.459932 -2.032962 8.010509 -6.686991 -10.483209 7.672453 -17.084906 -13.614128 22.966772 1.438136 2.014142 -22.237799 -16.183472 16.759638 
0.076700 48.473663 0.076700 -0.370086 -0.180101 -26.278187 24.756355 5.661510 -14.885332 -0.031670 1.279348 0.204967 -8.546022 0.915930 -0.147486 16.912209 15.350256 40.914505 2.000000 -2.000000 0.000000 -20.906284 -45.480824 -15.428417 -46.034931 -0.600127 8.544656 -40.505669 -46.292744 -147.277191 -2.000000 2.000000 0.000000 134.362228 45.466747 79.201408 59.637749 0.532398 8.673733 15.487682 -55.891483 -40.041714 -28.914909 22.430244 14.785314 25.479689 -1.387827 -2.193903 7.436223 -6.995645 -10.396338 6.236068 -17.473709 -13.220035 26.118162 1.334542 2.196389 -23.518454 -16.393341 16.726608 
0.046648 47.982853 0.046648 -1.102652 -0.511829 -24.882887 25.421419 2.285167 -3.551445 -0.141696 3.907169 0.613555 -8.546022 0.915930 -0.147486 11.217547 10.584414 25.601061 2.000000 -2.000000 0.000000 -27.461386 -36.246067 -6.066600 -46.613983 -0.600959 8.548879 -38.487274 -27.674858 -121.495270 -2.000000 2.000000 0.000000 103.334724 41.666954 54.585468 72.354530 0.508179 8.795814 19.311455 -59.898869 -40.633251 -31.089815 22.700495 14.150227 28.580605 -1.275630 -2.368995 6.961268 -8.382462 -9.915214 4.490969 -17.664852 -12.873453 30.919392 1.139104 2.465378 -25.610031 -17.567198 16.453568 
-0.003437 47.742451 -0.003437 -1.952697 -0.872151 -21.064276 24.991573 -2.184442 10.941607 -0.381414 6.954551 1.080734 -8.546022 0.915930 -0.147486 5.907217 1.570670 5.338097 2.000000 -2.000000 0.000000 -2.908601 -28.969353 -30.488693 -49.929379 -0.581369 8.582138 -24.479246 -4.529801 -88.350952 -2.000000 2.000000 0.000000 74.685616 22.284710 30.138674 91.692863 0.520031 9.000765 20.021015 -64.934502 -39.194408 -32.031322 21.748198 14.174071 28.521097 -1.280243 -2.386452 8.111714 -11.881849 -8.447325 5.563266 -16.488920 -13.444631 32.443378 1.080403 2.556600 -26.709873 -20.845476 15.654611 
-0.018463 47.652313 -0.018463 -2.822308 -1.007387 -16.288364 23.801954 -6.490825 24.997637 -0.520150 9.548687 1.516036 -8.546022 0.915930 -0.147486 4.206384 -8.832498 -13.787625 2.000000 -2.000000 0.000000 15.295480 -19.972387 -67.753571 -53.481617 -0.567128 8.611655 -7.247287 13.903288 -46.860634 -2.000000 2.000000 0.000000 64.092094 -10.326922 12.436466 104.847130 0.568943 9.130370 13.780939 -58.022900 -28.208538 -31.942663 19.950556 14.596739 26.546190 -1.353235 -2.251831 10.273212 -16.094795 -6.505685 7.624317 -14.694098 -14.314902 32.365261 1.080549 2.552674 -27.364588 -24.954412 14.585353 
0.006580 47.537048 0.006580 -3.584154 -0.859823 -12.534171 23.121029 -9.666716 34.648987 -0.314792 10.949696 1.855342 -8.546022 0.915930 -0.147486 4.908008 -15.439188 -26.319450 2.000000 -2.000000 0.000000 19.963070 -5.036589 -95.833908 -54.436314 -0.563398 8.620561 13.183404 17.754520 -8.348151 -2.000000 2.000000 0.000000 66.482399 -30.050114 -3.153003 99.741264 0.549100 9.080566 13.021128 -43.231083 -19.904409 -31.659597 18.212448 15.007997 24.795019 -1.411321 -2.143517 12.191391 -19.277885 -4.901702 8.880524 -13.508909 -14.884751 32.765556 1.055674 2.585642 -28.153858 -28.260105 13.702646 
